<?xml version="1.0" encoding="UTF-8" standalone="no"?>
<!DOCTYPE svg PUBLIC "-//W3C//DTD SVG 1.1//EN"
 "http://www.w3.org/Graphics/SVG/1.1/DTD/svg11.dtd">
<!-- Generated by graphviz version 10.0.1 (20240210.2158)
 -->
<!-- Title: k8s&#45;cluster Pages: 1 -->
<svg width="724pt" height="734pt"
 viewBox="0.00 0.00 724.00 734.10" xmlns="http://www.w3.org/2000/svg" xmlns:xlink="http://www.w3.org/1999/xlink">
<g id="graph0" class="graph" transform="scale(1 1) rotate(0) translate(144 590.1)">
<title>k8s&#45;cluster</title>
<polygon fill="white" stroke="none" points="-144,144 -144,-590.1 580,-590.1 580,144 -144,144"/>
<text text-anchor="middle" x="218" y="-7.75" font-family="Sans-Serif" font-size="15.00" fill="#2d3436">k8s&#45;cluster</text>
<g id="clust1" class="cluster">
<title>cluster_Kubernetes cluster</title>
<path fill="#e5f5fd" stroke="#aeb6be" d="M20,-34C20,-34 416,-34 416,-34 422,-34 428,-40 428,-46 428,-46 428,-426.1 428,-426.1 428,-432.1 422,-438.1 416,-438.1 416,-438.1 20,-438.1 20,-438.1 14,-438.1 8,-432.1 8,-426.1 8,-426.1 8,-46 8,-46 8,-40 14,-34 20,-34"/>
<text text-anchor="middle" x="71.12" y="-40.85" font-family="Sans-Serif" font-size="12.00" fill="#2d3436">Kubernetes cluster</text>
</g>
<g id="clust2" class="cluster">
<title>cluster_Master</title>
<path fill="#ebf3e7" stroke="#aeb6be" d="M172,-255.05C172,-255.05 264,-255.05 264,-255.05 270,-255.05 276,-261.05 276,-267.05 276,-267.05 276,-418.1 276,-418.1 276,-424.1 270,-430.1 264,-430.1 264,-430.1 172,-430.1 172,-430.1 166,-430.1 160,-424.1 160,-418.1 160,-418.1 160,-267.05 160,-267.05 160,-261.05 166,-255.05 172,-255.05"/>
<text text-anchor="middle" x="187.88" y="-261.9" font-family="Sans-Serif" font-size="12.00" fill="#2d3436">Master</text>
</g>
<g id="clust3" class="cluster">
<title>cluster_Nodes</title>
<path fill="#ebf3e7" stroke="#aeb6be" d="M28,-64.25C28,-64.25 408,-64.25 408,-64.25 414,-64.25 420,-70.25 420,-76.25 420,-76.25 420,-227.3 420,-227.3 420,-233.3 414,-239.3 408,-239.3 408,-239.3 28,-239.3 28,-239.3 22,-239.3 16,-233.3 16,-227.3 16,-227.3 16,-76.25 16,-76.25 16,-70.25 22,-64.25 28,-64.25"/>
<text text-anchor="middle" x="42.75" y="-71.1" font-family="Sans-Serif" font-size="12.00" fill="#2d3436">Nodes</text>
</g>
<!-- 74f25395b19f40be8d38acf9ca570e53 -->
<g id="node1" class="node">
<title>74f25395b19f40be8d38acf9ca570e53</title>
<image xlink:href="C:\Users\Eamon\dev\github\orgs\eonuallain\technotes\.venv\Lib\site-packages\resources/k8s/infra\master.png" width="100.8px" height="100.8px" preserveAspectRatio="xMinYMin meet" x="167.6" y="-404.1"/>
<text text-anchor="middle" x="218" y="-287.95" font-family="Sans-Serif" font-size="13.00" fill="#2d3436">192.168.1.115</text>
</g>
<!-- aff2eb9c0af84302bc3bd254c28c1ee7 -->
<g id="node2" class="node">
<title>aff2eb9c0af84302bc3bd254c28c1ee7</title>
<image xlink:href="C:\Users\Eamon\dev\github\orgs\eonuallain\technotes\.venv\Lib\site-packages\resources/k8s/infra\node.png" width="100.8px" height="100.8px" preserveAspectRatio="xMinYMin meet" x="23.6" y="-213.3"/>
<text text-anchor="middle" x="74" y="-97.15" font-family="Sans-Serif" font-size="13.00" fill="#2d3436">192.168.1.57</text>
</g>
<!-- aff2eb9c0af84302bc3bd254c28c1ee7&#45;&gt;74f25395b19f40be8d38acf9ca570e53 -->
<g id="edge1" class="edge">
<title>aff2eb9c0af84302bc3bd254c28c1ee7:c&#45;&gt;74f25395b19f40be8d38acf9ca570e53:c</title>
<path fill="none" stroke="#7b8894" d="M74,-231.12C74,-286.03 74,-354.1 74,-354.1 74,-354.1 156.12,-354.1 156.12,-354.1"/>
<polygon fill="#7b8894" stroke="#7b8894" points="156.12,-357.6 166.12,-354.1 156.12,-350.6 156.12,-357.6"/>
</g>
<!-- 17e0fa61876140d08833e35a5ff32730 -->
<g id="node3" class="node">
<title>17e0fa61876140d08833e35a5ff32730</title>
<image xlink:href="C:\Users\Eamon\dev\github\orgs\eonuallain\technotes\.venv\Lib\site-packages\resources/k8s/infra\node.png" width="100.8px" height="100.8px" preserveAspectRatio="xMinYMin meet" x="167.6" y="-213.3"/>
<text text-anchor="middle" x="218" y="-97.15" font-family="Sans-Serif" font-size="13.00" fill="#2d3436">192.168.1.58</text>
</g>
<!-- 17e0fa61876140d08833e35a5ff32730&#45;&gt;74f25395b19f40be8d38acf9ca570e53 -->
<g id="edge2" class="edge">
<title>17e0fa61876140d08833e35a5ff32730:c&#45;&gt;74f25395b19f40be8d38acf9ca570e53:c</title>
<path fill="none" stroke="#7b8894" d="M218,-231.24C218,-231.24 218,-274 218,-274"/>
<polygon fill="#7b8894" stroke="#7b8894" points="214.5,-274 218,-284 221.5,-274 214.5,-274"/>
</g>
<!-- d53db24c9ef94eaab9358d6ff7383662 -->
<g id="node4" class="node">
<title>d53db24c9ef94eaab9358d6ff7383662</title>
<image xlink:href="C:\Users\Eamon\dev\github\orgs\eonuallain\technotes\.venv\Lib\site-packages\resources/k8s/infra\node.png" width="100.8px" height="100.8px" preserveAspectRatio="xMinYMin meet" x="311.6" y="-213.3"/>
<text text-anchor="middle" x="362" y="-97.15" font-family="Sans-Serif" font-size="13.00" fill="#2d3436">192.168.1.59</text>
</g>
<!-- d53db24c9ef94eaab9358d6ff7383662&#45;&gt;74f25395b19f40be8d38acf9ca570e53 -->
<g id="edge3" class="edge">
<title>d53db24c9ef94eaab9358d6ff7383662:c&#45;&gt;74f25395b19f40be8d38acf9ca570e53:c</title>
<path fill="none" stroke="#7b8894" d="M362,-231.12C362,-286.03 362,-354.1 362,-354.1 362,-354.1 279.88,-354.1 279.88,-354.1"/>
<polygon fill="#7b8894" stroke="#7b8894" points="279.88,-350.6 269.88,-354.1 279.88,-357.6 279.88,-350.6"/>
</g>
</g>
</svg>
